<svg width="337" height="68" viewBox="0 0 337 68" fill="none" xmlns="http://www.w3.org/2000/svg">
<g clip-path="url(#clip0_5_160)">
<path d="M336.66 59.1502H0.0100098V61.5802H336.66V59.1502Z" fill="white"/>
<path d="M336.66 64.6602H0.0100098V67.0902H336.66V64.6602Z" fill="white"/>
<path d="M66.4001 50.8502L65.1101 48.9002V20.8802L66.4001 18.6202H53.6101L54.5801 20.8802V48.9002L53.6101 50.8502H66.4001Z" fill="white"/>
<path d="M83.5701 50.8502L82.4301 47.2802V12.1402L83.2401 9.88016H70.6101L71.7501 12.1402V47.2802L70.9401 50.8502H83.5701Z" fill="white"/>
<path d="M100.89 50.8402C100.57 49.0602 100.08 47.2802 99.89 45.3402V5.34015C100.116 3.54176 100.45 1.75856 100.89 0.000152588H88.26C88.7046 1.75751 89.0386 3.541 89.26 5.34015V45.3402C89.0231 47.1897 88.6894 49.0256 88.26 50.8402H100.89Z" fill="white"/>
<path d="M34.49 50.8502L35.79 48.9002V20.8802L34.49 18.6202H47.28L46.31 20.8802V48.9002L47.28 50.8502H34.49Z" fill="white"/>
<path d="M17.3301 50.8502L18.4601 47.2802V12.1402L17.6501 9.88016H30.2801L29.1501 12.1402V47.2802L29.9601 50.8502H17.3301Z" fill="white"/>
<path d="M0 50.8402C0.32 49.0602 0.81 47.2802 1 45.3402V5.34015C0.773706 3.54176 0.439773 1.75856 0 0.000152588H12.63C12.1854 1.75751 11.8514 3.541 11.63 5.34015V45.3402C11.8669 47.1897 12.2007 49.0256 12.63 50.8402H0Z" fill="white"/>
<path d="M291.8 22.3902H283.87C284.244 20.9649 284.409 19.4929 284.36 18.0202C284.04 12.8402 279.99 10.0802 274.97 10.0802C274.8 9.76016 274.8 9.76016 274.48 9.76016L264.76 10.0802V12.3502H268.49C267.03 13.8102 265.74 15.2602 265.74 18.0202C265.41 19.8002 266.22 21.4202 266.22 22.3902H255.33V10.0802H252.58V13.0002C251.081 11.0868 248.76 10.0024 246.33 10.0802C242.11 10.0802 237.58 12.8402 237.26 18.0202C237.09 24.1702 240.5 24.8202 241.63 24.8202H291.18C294.1 24.8202 293.44 22.8802 294.1 19.6402C295.39 16.0702 302.68 17.3702 300.73 23.0402C300.41 24.3302 299.73 24.3302 298.95 24.1702L295.21 21.5402L294.88 24.2902L299.09 26.8802C300.39 27.5302 303.95 25.1002 303.47 20.0802C302.17 12.8402 291.33 13.8102 291.8 22.3902ZM251.8 22.3902H241.6C239.49 21.5802 239.33 19.6402 239.82 16.8902C240.47 14.1302 243.38 12.5102 246.3 12.5102C249.031 12.5352 251.444 14.2963 252.3 16.8902C253.11 19.6402 253.11 22.0702 251.81 22.3902H251.8ZM279.98 22.3902H269.98C268.03 21.5802 267.71 19.6402 268.19 16.8902C269.01 14.1302 272.08 12.3502 275 12.3502C277.75 12.3502 281.15 14.1302 281.8 16.8902C282.25 19.6402 282.09 21.5402 279.99 22.3902H279.98Z" fill="white"/>
<path d="M330.67 14.2902H319.33C318.612 14.2902 318.03 14.8722 318.03 15.5902C318.03 16.3081 318.612 16.8902 319.33 16.8902H329.33C333.33 17.0502 333.33 22.3902 329.33 22.3902C323.5 22.3902 316.7 22.0702 310.88 22.0702V1.18016H308.12V24.8202H330.63C337.15 24.8202 335.85 14.2902 330.67 14.2902Z" fill="white"/>
<path d="M327.75 26.1102C326.776 26.2203 326.064 27.0826 326.14 28.0602C326.14 28.951 326.859 29.6747 327.75 29.6802C328.606 29.6072 329.278 28.9175 329.33 28.0602C329.351 27.1112 328.683 26.2861 327.75 26.1102Z" fill="white"/>
<path d="M248.09 6.68016C248.484 6.70744 248.871 6.56204 249.149 6.28176C249.427 6.00149 249.57 5.61404 249.54 5.22016C249.57 4.82707 249.427 4.44034 249.149 4.16155C248.87 3.88277 248.483 3.73978 248.09 3.77016C247.09 3.77016 246.31 4.25016 246.31 5.22016C246.31 6.19016 247.11 6.68016 248.09 6.68016Z" fill="white"/>
<path d="M207.6 26.1102C206.79 26.1102 206.15 27.1102 206.15 28.0602C206.131 28.8979 206.765 29.6066 207.6 29.6802C208.528 29.6891 209.307 28.9841 209.39 28.0602C209.37 27.0518 208.603 26.2159 207.6 26.1102Z" fill="white"/>
<path d="M219.42 22.0702H207.6V13.8102H205.01V22.0702H193.51V20.0702C192.22 12.7902 181.51 13.7602 181.86 22.3402H167.33V1.18016H164.53L164.69 24.8202H181.33C184.57 24.8202 183.6 22.8802 184.57 19.6402C185.57 16.0702 192.51 17.3702 190.72 23.0402C190.4 24.3302 189.72 24.3302 189.1 24.1702L185.42 21.5402L185.09 24.2902L189.47 26.8802C189.95 27.3702 191.73 26.4002 192.71 24.7802H222.18V1.18016H219.42V22.0702Z" fill="white"/>
<path d="M225.74 24.8202H228.17V1.18016H225.41L225.74 24.8202Z" fill="white"/>
<path d="M244.33 6.68015C244.879 6.72568 245.406 6.45874 245.695 5.98976C245.983 5.52079 245.983 4.92952 245.695 4.46055C245.406 3.99157 244.879 3.72463 244.33 3.77015C243.33 3.77015 242.55 4.25015 242.55 5.22015C242.55 6.19015 243.39 6.68015 244.33 6.68015Z" fill="white"/>
<path d="M204.04 26.1102C203.041 26.2206 202.279 27.0552 202.26 28.0602C202.338 28.9826 203.114 29.6887 204.04 29.6802C204.909 29.622 205.602 28.9296 205.66 28.0602C205.654 27.1072 204.976 26.2912 204.04 26.1102Z" fill="white"/>
<path d="M150.44 22.3902H135.38V10.0802H132.79V13.0002C131.278 11.0694 128.93 9.98291 126.48 10.0802C122.27 10.0802 117.73 12.8402 117.41 18.0202C117.25 24.1702 120.81 24.8202 121.78 24.8202H149.63C152.87 24.8202 152.22 22.8802 152.87 19.6402C154 16.0702 161.29 17.3702 159.51 23.0402C159.02 24.3302 158.22 24.3302 157.73 24.1702L153.68 21.5402L153.33 24.3302L157.86 26.9202C159.16 27.5702 162.72 25.1402 161.91 20.1202C160.65 12.8402 149.96 13.8102 150.44 22.3902ZM131.98 22.3902H121.78C119.67 21.5802 119.51 19.6402 120 16.8902C120.81 14.1302 123.73 12.5102 126.48 12.5102C129.235 12.5689 131.674 14.3059 132.63 16.8902C133.33 19.6402 133.6 22.0702 131.98 22.3902Z" fill="white"/>
<path d="M127.77 6.68016C128.172 6.7378 128.578 6.60264 128.865 6.31538C129.153 6.02811 129.288 5.6223 129.23 5.22016C129.289 4.81866 129.153 4.41318 128.865 4.12726C128.578 3.84134 128.171 3.70885 127.77 3.77016C127.294 3.75724 126.832 3.92929 126.48 4.25016C126.31 4.41016 126.31 5.06016 126.31 5.25016C126.284 5.53433 126.343 5.81991 126.48 6.07016C126.776 6.48255 127.264 6.71316 127.77 6.68016Z" fill="white"/>
<path d="M124.05 6.68015C125.05 6.68015 125.83 6.20015 125.83 5.22015C125.83 4.24015 125.02 3.77015 124.05 3.77015C123.501 3.72463 122.974 3.99157 122.685 4.46055C122.397 4.92952 122.397 5.52079 122.685 5.98976C122.974 6.45874 123.501 6.72568 124.05 6.68015Z" fill="white"/>
<path d="M299.9 41.6602C299.42 41.9802 299.09 42.7902 298.61 43.4402V41.5402H296.33V51.5402H298.6V46.0302C298.587 45.2516 298.878 44.4985 299.41 43.9302C299.874 43.4547 300.529 43.2156 301.19 43.2802C301.398 43.3528 301.612 43.4064 301.83 43.4402L302.65 41.1702H301.65C300.88 41.1702 300.39 41.1702 299.9 41.6602Z" fill="white"/>
<path d="M307.19 42.9602C307.489 42.968 307.776 43.0814 308 43.2802C308.49 43.4402 308.65 43.7602 309 43.9302L310.46 42.7902C309.636 41.8443 308.471 41.2621 307.22 41.1702C306.387 41.1392 305.575 41.4292 304.95 41.9802C304.264 42.4025 303.876 43.1776 303.95 43.9802C303.913 44.6113 304.085 45.237 304.44 45.7602C305.17 46.4169 306.066 46.8628 307.03 47.0502C308.16 47.8602 308.65 48.3502 308.65 48.8302C308.584 49.1483 308.411 49.4342 308.16 49.6402C307.875 49.9633 307.461 50.1429 307.03 50.1302C306.297 50.0411 305.643 49.6259 305.25 49.0002L303.47 49.8102C304.215 51.0775 305.56 51.8713 307.03 51.9102C307.903 51.8908 308.75 51.6085 309.46 51.1002C310.119 50.5332 310.486 49.699 310.46 48.8302C310.509 48.097 310.338 47.366 309.97 46.7302C309.325 46.1332 308.53 45.722 307.67 45.5402C306.38 45.0502 305.73 44.4002 305.73 43.9202C305.73 43.4402 306.22 42.9602 307.19 42.9602Z" fill="white"/>
<path d="M314.47 41.5002H312.53V51.5402H314.47V41.5002Z" fill="white"/>
<path d="M319.98 38.4202H318.2V41.5002H316.26V43.4402H318.2V51.5402H319.98V43.4402H322.25V41.5002H319.98V38.4202Z" fill="white"/>
<path d="M332.61 41.5002L330.02 46.6802L326.3 41.5002H324.03L329.05 48.9502L325.81 56.2402H327.75L334.88 41.5002H332.61Z" fill="white"/>
<path d="M294.4 46.6802C294.437 45.243 293.914 43.8477 292.94 42.7902C291.945 41.7034 290.522 41.1107 289.05 41.1702C287.65 41.1911 286.315 41.7698 285.343 42.7778C284.371 43.7858 283.841 45.1399 283.87 46.5402C283.838 47.9199 284.365 49.254 285.33 50.2402C286.34 51.2015 287.658 51.7752 289.05 51.8602C290.935 51.9007 292.731 51.0616 293.91 49.5902L292.33 48.4602C291.791 49.5526 290.632 50.1976 289.42 50.0802H289.09C288.373 50.0253 287.693 49.7413 287.15 49.2702C286.492 48.5394 286.043 47.6447 285.85 46.6802H294.44H294.4ZM289.05 43.2802C290.68 43.2802 291.8 43.7602 292.13 45.2202H286.13C286.518 43.9615 287.739 43.1503 289.05 43.2802Z" fill="white"/>
<path d="M231.73 41.1702C231.043 41.0551 230.34 41.2328 229.79 41.6602C229.208 42.0382 228.665 42.4737 228.17 42.9602V35.6702H225.9V51.5402H228.17V46.0302C228.157 45.2516 228.448 44.4985 228.98 43.9302C229.439 43.3172 230.154 42.9487 230.92 42.9302C231.397 42.9301 231.858 43.1004 232.22 43.4102C232.545 43.887 232.713 44.4534 232.7 45.0302V51.5402H234.97V44.4102C234.913 43.5595 234.559 42.7559 233.97 42.1402C233.362 41.5615 232.568 41.2177 231.73 41.1702Z" fill="white"/>
<path d="M253.11 46.0302C253.205 47.1011 252.841 48.1621 252.11 48.9502C251.295 49.7472 250.178 50.1583 249.04 50.0802C247.962 50.1418 246.927 49.6522 246.29 48.7802C245.633 47.8301 245.297 46.6949 245.33 45.5402V35.9902H243.07V45.2202C243.07 47.4902 243.55 49.2202 244.85 50.2202C245.85 51.5202 247.28 52.0002 249.38 52.0002C250.992 52.1431 252.57 51.4761 253.59 50.2202C254.758 49.0154 255.386 47.3874 255.33 45.7102V35.9902H253.07L253.11 46.0302Z" fill="white"/>
<path d="M262.66 41.1702C262.124 41.1036 261.587 41.2839 261.2 41.6602C260.491 42.0577 259.882 42.6118 259.42 43.2802V41.5402H257.48V51.5402H259.42V46.0302C259.401 45.2111 259.772 44.4317 260.42 43.9302C260.761 43.2719 261.46 42.879 262.2 42.9302C262.664 42.9917 263.108 43.1557 263.5 43.4102C263.777 43.9085 263.941 44.4615 263.98 45.0302V51.5402H266.25V44.2502C266.132 43.4159 265.786 42.6304 265.25 41.9802C264.478 41.4766 263.581 41.1962 262.66 41.1702Z" fill="white"/>
<path d="M270.44 41.5002H268.49V51.5402H270.44V41.5002Z" fill="white"/>
<path d="M277.56 47.0102L274.81 41.5002H272.54L277.56 52.0202L282.74 41.5002H280.47L277.56 47.0102Z" fill="white"/>
<path d="M222.02 43.4402C221.467 42.8074 220.873 42.2128 220.24 41.6602C219.75 41.5002 219.42 41.1702 218.94 41.1702H217.94C216.628 41.1914 215.39 41.7828 214.55 42.7902C213.118 44.2791 212.668 46.4571 213.391 48.3918C214.114 50.3265 215.883 51.6751 217.94 51.8602H218.94C220.122 51.3414 221.174 50.566 222.02 49.5902V51.5902H223.96V41.5402H222.02V43.4402ZM221.21 48.9502C220.603 49.5724 219.802 49.9706 218.94 50.0802C217.965 50.0193 217.042 49.6196 216.33 48.9502C215.674 48.3142 215.311 47.4339 215.33 46.5202C215.279 45.6467 215.651 44.8019 216.33 44.2502C217.002 43.5487 217.951 43.1823 218.92 43.2502C219.789 43.2209 220.625 43.589 221.19 44.2502C221.928 44.755 222.316 45.6349 222.19 46.5202C222.289 47.443 221.922 48.3545 221.21 48.9502Z" fill="white"/>
<path d="M208.09 41.1702C207.456 41.0983 206.818 41.2738 206.31 41.6602C205.706 42.0815 205.207 42.6357 204.85 43.2802C204.53 42.4702 204.36 41.9802 203.85 41.6602C203.351 41.2554 202.706 41.0777 202.07 41.1702C201.466 41.1068 200.856 41.2363 200.33 41.5402C199.94 42.0635 199.505 42.552 199.03 43.0002V41.5402H196.77V51.5402H199.03V45.7102C199.109 45.0256 199.273 44.3536 199.52 43.7102C199.967 43.1948 200.618 42.9022 201.3 42.9102C202.3 42.9102 202.75 43.7102 202.75 45.0102V51.5402H205.02V46.0302C205.015 45.253 205.305 44.5029 205.83 43.9302C206.117 43.3718 206.666 42.9958 207.29 42.9302C207.77 42.9039 208.238 43.0829 208.578 43.4226C208.917 43.7623 209.096 44.2305 209.07 44.7102V51.5402H211.17V44.2502C211.123 43.4332 210.845 42.6463 210.37 41.9802C209.701 41.5019 208.911 41.2213 208.09 41.1702Z" fill="white"/>
<path d="M192.55 43.4402C192.082 42.7302 191.473 42.1242 190.76 41.6602C190.348 41.4533 189.916 41.2891 189.47 41.1702H188.66C187.383 41.1622 186.18 41.764 185.42 42.7902C184.386 43.753 183.799 45.1023 183.799 46.5152C183.799 47.928 184.386 49.2773 185.42 50.2402C186.18 51.2663 187.383 51.8681 188.66 51.8602H189.47C190.675 51.3821 191.737 50.6 192.55 49.5902V51.5902H194.48V41.5402H192.55V43.4402ZM191.73 48.9502C191.128 49.5736 190.33 49.9723 189.47 50.0802C188.588 50.0406 187.763 49.6302 187.2 48.9502C186.455 48.3762 186.031 47.4799 186.06 46.5402C185.992 45.6311 186.43 44.7585 187.2 44.2702C187.745 43.5828 188.595 43.2087 189.47 43.2702C190.337 43.2396 191.17 43.6081 191.73 44.2702C192.47 44.7734 192.858 45.6545 192.73 46.5402C192.821 47.4603 192.446 48.365 191.73 48.9502Z" fill="white"/>
<path d="M179.1 41.1702C178.29 41.1702 177.81 41.1702 177.33 41.6602C176.723 42.0806 176.22 42.6349 175.86 43.2802C175.605 42.6646 175.22 42.1118 174.73 41.6602C174.18 41.2328 173.477 41.0551 172.79 41.1702C172.276 41.1322 171.764 41.262 171.33 41.5402C170.824 42.0634 170.283 42.5512 169.71 43.0002V41.5402H167.77V51.5402H169.71V45.7102C169.757 44.9736 170.041 44.272 170.52 43.7102C170.969 43.197 171.618 42.9049 172.3 42.9102C173.3 42.9102 173.76 43.7102 173.76 45.0102V51.5402H176.03V46.0302C176.076 45.3089 176.238 44.5998 176.51 43.9302C176.958 43.3862 177.593 43.0295 178.29 42.9302C178.746 42.937 179.179 43.1322 179.485 43.4694C179.792 43.8066 179.946 44.2557 179.91 44.7102V51.5402H182.18V44.2502C182.149 43.3657 181.737 42.5378 181.05 41.9802C180.535 41.4595 179.832 41.1677 179.1 41.1702Z" fill="white"/>
<path d="M156.76 35.9902H155.63H154.17L150.44 42.1502L146.72 35.9902H144.13L149.47 44.4102V51.5402H151.41V44.4102L155.63 37.4502L156.76 35.9902Z" fill="white"/>
<path d="M163.56 43.4402C163.008 42.8074 162.413 42.2128 161.78 41.6602C161.265 41.4243 160.72 41.2594 160.16 41.1702H159.51C158.218 41.0921 156.983 41.7098 156.27 42.7902C156.035 42.9274 155.817 43.0919 155.62 43.2802C154.328 45.2469 154.328 47.7935 155.62 49.7602C155.62 50.0802 155.95 50.0802 155.95 50.2402C156.881 51.222 158.158 51.803 159.51 51.8602H160.16C161.484 51.4378 162.662 50.6511 163.56 49.5902V51.5902H165.5V41.5402H163.56V43.4402ZM162.75 48.9502C162.061 49.6407 161.135 50.0444 160.16 50.0802C159.278 50.0406 158.454 49.6302 157.89 48.9502C157.234 48.3142 156.871 47.4339 156.89 46.5202C156.839 45.6467 157.211 44.802 157.89 44.2502C158.454 43.5865 159.29 43.218 160.16 43.2502C161.133 43.155 162.094 43.5259 162.75 44.2502C163.364 44.8492 163.723 45.6627 163.75 46.5202C163.69 47.4173 163.338 48.2703 162.75 48.9502Z" fill="white"/>
<path d="M117.25 51.5402H119.51L121.46 47.5402H128.1L130.04 51.5402H132.33L124.72 35.1802L117.25 51.5402ZM124.7 45.7102H122.27L124.7 40.2002L127.33 45.7102H124.7Z" fill="white"/>
<path d="M136.35 35.6702H134.25V51.5402H136.35V35.6702Z" fill="white"/>
<path d="M269.33 36.3802C268.698 36.3802 268.129 36.7613 267.888 37.3455C267.647 37.9297 267.782 38.6014 268.231 39.0468C268.679 39.4921 269.351 39.6231 269.934 39.3785C270.517 39.1339 270.894 38.562 270.89 37.9302C270.89 37.5173 270.725 37.1216 270.432 36.8306C270.14 36.5396 269.743 36.3775 269.33 36.3802Z" fill="white"/>
<path d="M313.67 36.3802C313.038 36.3802 312.469 36.7613 312.228 37.3455C311.987 37.9297 312.122 38.6014 312.57 39.0468C313.019 39.4921 313.691 39.6231 314.274 39.3785C314.856 39.1339 315.234 38.562 315.23 37.9302C315.23 37.5173 315.065 37.1216 314.772 36.8306C314.479 36.5396 314.083 36.3775 313.67 36.3802Z" fill="white"/>
</g>
<defs>
<clipPath id="clip0_5_160">
<rect width="336.66" height="67.09" fill="white"/>
</clipPath>
</defs>
</svg>
